<svg id="Group_4102" data-name="Group 4102" xmlns="http://www.w3.org/2000/svg" width="16.325" height="16.309" viewBox="0 0 16.325 16.309">
  <path id="Path_1469" data-name="Path 1469" d="M65.328,252.306h7.031v2.44h1.131V261.3h2.788v1.124h1.253v.706H76.36v.963H74.946v1.252H73.531v1H72.077v1.092H70.9v1.188h-.889v-.963H68.682V266.5H67.268v-.738H65.733V264.6H64.4v-.963H62.823v-1.316H61.207v-1.156H65.49Z" transform="translate(-61.207 -252.306)"/>
  <path id="Path_1470" data-name="Path 1470" d="M76.1,269.809V268.72h1.047V267.6h1.466l-.048-1.09h1.4v-1.16H76.041v-8.423H71.788v8.423H68.85v.894h1.364l-.011,1.09h1.532l.028,1.178.8.005-.02.759h1.367l.01.536Z" transform="translate(-66.008 -255.558)" fill="#fff"/>
</svg>
