<svg xmlns="http://www.w3.org/2000/svg" width="47.825" height="40.716" viewBox="0 0 47.825 40.716"><g transform="translate(1184.781 2335.716) rotate(180)"><g transform="translate(1178.781 2329.716) rotate(180)" fill="#fff"><path d="M 38.82476425170898 31.7158203125 L 35.82476425170898 31.7158203125 L 4.033202912978595e-06 31.7158203125 L -2.999995946884155 31.7158203125 L -2.999995946884155 28.7158203125 L -2.999995946884155 1.109924369302462e-06 L -2.999995946884155 -2.999998807907104 L 4.033202912978595e-06 -2.999998807907104 L 35.82476425170898 -2.999998807907104 L 38.82476425170898 -2.999998807907104 L 38.82476425170898 1.109924369302462e-06 L 38.82476425170898 28.7158203125 L 38.82476425170898 31.7158203125 Z" stroke="none"/><path d="M 35.82477188110352 28.71582221984863 L 35.82477188110352 -1.186794662544344e-09 L -4.855685801885556e-06 -1.186794662544344e-09 L -4.855685801885556e-06 28.71582221984863 L 35.82477188110352 28.71582221984863 M 41.82477188110352 34.71582412719727 L 35.82477188110352 34.71582412719727 L -4.855685801885556e-06 34.71582412719727 L -6.000004768371582 34.71582412719727 L -6.000004768371582 28.71582221984863 L -6.000004768371582 -1.186794662544344e-09 L -6.000004768371582 -6 L -4.855685801885556e-06 -6 L 35.82477188110352 -6 L 41.82477188110352 -6 L 41.82477188110352 -1.186794662544344e-09 L 41.82477188110352 28.71582221984863 L 41.82477188110352 34.71582412719727 Z" stroke="none" fill="#fff"/></g><path d="M0,11.536H2.583V14.05H5.166v2.307H7.927v2.307h2.761v2.785h1.425v-7.4H23.336V7.4H12.113V0H10.688V2.785H7.927V5.092H5.166V7.4H2.583V9.913H0Z" transform="translate(1173.547 2325.913) rotate(180)"/></g></svg>